<?xml version="1.0" encoding="UTF-8" standalone="no"?>
<!-- Created with Inkscape (http://www.inkscape.org/) -->

<svg
   width="256"
   height="256"
   viewBox="0 0 67.733332 67.733333"
   version="1.1"
   id="svg1"
   inkscape:version="1.3.2 (091e20e, 2023-11-25)"
   sodipodi:docname="hulu.svg"
   xmlns:inkscape="http://www.inkscape.org/namespaces/inkscape"
   xmlns:sodipodi="http://sodipodi.sourceforge.net/DTD/sodipodi-0.dtd"
   xmlns="http://www.w3.org/2000/svg"
   xmlns:svg="http://www.w3.org/2000/svg">
  <sodipodi:namedview
     id="namedview1"
     pagecolor="#505050"
     bordercolor="#eeeeee"
     borderopacity="1"
     inkscape:showpageshadow="0"
     inkscape:pageopacity="0"
     inkscape:pagecheckerboard="0"
     inkscape:deskcolor="#505050"
     inkscape:document-units="mm"
     inkscape:zoom="1.3115105"
     inkscape:cx="88.066396"
     inkscape:cy="84.635238"
     inkscape:window-width="1392"
     inkscape:window-height="847"
     inkscape:window-x="1758"
     inkscape:window-y="327"
     inkscape:window-maximized="0"
     inkscape:current-layer="layer1" />
  <defs
     id="defs1" />
  <g
     inkscape:label="Layer 1"
     inkscape:groupmode="layer"
     id="layer1">
    <path
       d="m 15.725669,29.422981 h -2.694993 c -0.945621,0 -1.42113,0.387592 -1.42113,0.387592 V 21.166667 H 7.4083333 V 47.625 H 11.609546 V 36.948973 c 0,-0.944413 0.505037,-1.709127 1.126384,-1.709127 h 2.445703 c 0.6223,0 1.125537,0.764714 1.125537,1.709127 V 47.625 h 4.203012 V 36.122158 c 0,-4.837897 -2.124128,-6.699177 -4.784513,-6.699177 z m 40.396266,0 v 10.674577 c 0,0.945944 -0.503185,1.710578 -1.125432,1.710578 H 52.5517 c -0.6223,0 -1.125537,-0.764634 -1.125537,-1.710578 V 29.422981 h -4.203859 v 11.207717 c 0,4.581274 1.931088,6.994302 4.785254,6.994302 h 4.115276 v -0.03318 c 2.629006,0 4.202166,-2.83896 4.202166,-6.961117 V 29.422985 Z M 32.415268,40.097558 c 0,0.945944 -0.504084,1.710578 -1.126384,1.710578 h -2.445702 c -0.6223,0 -1.125485,-0.764634 -1.125485,-1.710578 V 29.422981 h -4.203065 v 11.207717 c 0,4.581274 1.931247,6.994302 4.78536,6.994302 h 4.115276 v -0.03318 c 2.629059,0 4.203012,-2.83896 4.203012,-6.961117 V 29.422985 H 32.415268 Z M 39.820956,47.625 h 4.203858 V 21.166667 h -4.203858 z"
       fill-rule="evenodd"
       style="fill:#ffffff;stroke-width:0.0652861"
       id="path1" />
  </g>
</svg>
