<?xml version="1.0" encoding="UTF-8" standalone="no"?>
<!-- Created with Inkscape (http://www.inkscape.org/) -->

<svg
   width="256"
   height="256"
   viewBox="0 0 67.733332 67.733335"
   version="1.1"
   id="svg1"
   inkscape:version="1.3.2 (091e20e, 2023-11-25)"
   sodipodi:docname="max.svg"
   xmlns:inkscape="http://www.inkscape.org/namespaces/inkscape"
   xmlns:sodipodi="http://sodipodi.sourceforge.net/DTD/sodipodi-0.dtd"
   xmlns="http://www.w3.org/2000/svg"
   xmlns:svg="http://www.w3.org/2000/svg">
  <sodipodi:namedview
     id="namedview1"
     pagecolor="#505050"
     bordercolor="#eeeeee"
     borderopacity="1"
     inkscape:showpageshadow="0"
     inkscape:pageopacity="0"
     inkscape:pagecheckerboard="0"
     inkscape:deskcolor="#505050"
     inkscape:document-units="mm"
     inkscape:zoom="1.8547559"
     inkscape:cx="103.24809"
     inkscape:cy="133.71032"
     inkscape:window-width="1392"
     inkscape:window-height="847"
     inkscape:window-x="1825"
     inkscape:window-y="355"
     inkscape:window-maximized="0"
     inkscape:current-layer="layer1" />
  <defs
     id="defs1" />
  <g
     inkscape:label="Layer 1"
     inkscape:groupmode="layer"
     id="layer1">
    <path
       id="path321"
       style="fill:#ffffff;stroke-width:0.08429"
       d="m 15.750663,26.458333 c -1.44374,0 -2.91036,0.586426 -4.78978,1.905147 V 26.793463 H 7.4083333 v 12.558906 h 3.7817797 v -7.807601 c 1.65012,-1.193052 2.40591,-1.570112 3.02504,-1.570112 0.7329,0 1.2145,0.418887 1.2145,1.465324 v 7.912389 h 3.78085 V 31.52381 c 1.65012,-1.172108 2.38397,-1.549154 3.02514,-1.549154 0.73378,0 1.2144,0.418887 1.2144,1.465324 v 7.912389 h 3.78096 v -9.126318 c 0,-2.825946 -1.7648,-3.767718 -3.46077,-3.767718 -1.44375,0 -2.9105,0.544523 -4.83578,1.884189 -0.61736,-1.403306 -1.96935,-1.884189 -3.18379,-1.884189 z m 19.15863,0 c -3.75796,0 -6.87483,2.951606 -6.87483,6.614536 0,3.662929 3.11687,6.614631 6.87483,6.614631 1.85648,0 3.46079,-0.627469 4.69904,-1.988883 v 1.653752 h 3.59823 V 26.793463 h -3.59823 v 1.653752 c -1.23825,-1.361414 -2.84256,-1.988882 -4.69904,-1.988882 z m 8.96141,0.33513 c 1.5583,2.218399 3.322992,4.207223 5.385722,6.196048 -2.06273,2.071795 -3.827422,4.228233 -5.385722,6.362858 h 4.560242 c 1.076783,-1.590899 2.291234,-3.035262 3.689904,-4.395782 1.374861,1.36052 2.520359,2.804883 3.598025,4.395782 H 60.325 C 58.74378,37.154914 57.024956,35.061306 54.962226,32.989511 57.00203,31.000686 58.74378,28.949837 60.325,26.793463 h -4.51435 c -1.122641,1.5909 -2.336988,2.930446 -3.689801,4.24908 -1.374859,-1.318634 -2.58931,-2.65818 -3.689904,-4.24908 z m -8.38904,2.574654 c 2.24542,0 4.05608,1.653769 4.05608,3.704752 0,2.050982 -1.81066,3.704847 -4.05608,3.704847 -2.24543,0 -4.05609,-1.653059 -4.05609,-3.704847 0,-2.051789 1.81066,-3.704752 4.05609,-3.704752 z m 0,0.836977 c -1.71891,0 -3.11682,1.276772 -3.11682,2.867775 0,1.591002 1.39791,2.867869 3.11682,2.867869 1.7189,0 3.1167,-1.276867 3.1167,-2.867869 0,-1.591003 -1.3978,-2.867775 -3.1167,-2.867775 z" />
  </g>
</svg>
