<?xml version="1.0" encoding="UTF-8" standalone="no"?>
<!-- Created with Inkscape (http://www.inkscape.org/) -->

<svg
   width="256"
   height="256"
   viewBox="0 0 67.733332 67.733333"
   version="1.1"
   id="svg1"
   inkscape:version="1.3.2 (091e20e, 2023-11-25)"
   sodipodi:docname="netflix.svg"
   xml:space="preserve"
   xmlns:inkscape="http://www.inkscape.org/namespaces/inkscape"
   xmlns:sodipodi="http://sodipodi.sourceforge.net/DTD/sodipodi-0.dtd"
   xmlns="http://www.w3.org/2000/svg"
   xmlns:svg="http://www.w3.org/2000/svg"><sodipodi:namedview
     id="namedview1"
     pagecolor="#505050"
     bordercolor="#eeeeee"
     borderopacity="1"
     inkscape:showpageshadow="0"
     inkscape:pageopacity="0"
     inkscape:pagecheckerboard="0"
     inkscape:deskcolor="#505050"
     inkscape:document-units="mm"
     inkscape:zoom="1.3115105"
     inkscape:cx="87.685154"
     inkscape:cy="84.635235"
     inkscape:window-width="1392"
     inkscape:window-height="847"
     inkscape:window-x="1758"
     inkscape:window-y="299"
     inkscape:window-maximized="0"
     inkscape:current-layer="layer1" /><defs
     id="defs1" /><g
     inkscape:label="Layer 1"
     inkscape:groupmode="layer"
     id="layer1"><path
       d="m 12.766316,45.919572 c -0.875627,0.258615 -1.766661,0.336152 -2.688384,0.542662 L 7.2665384,32.613058 V 47.05662 C 6.3909126,47.211597 5.5920806,47.4183 4.7625,47.625 V 21.166667 h 2.335154 l 3.19532,15.012229 V 21.166667 h 2.473342 z m 4.839193,-15.06357 c 0.952537,0 2.411951,-0.07753 3.287578,-0.07753 v 4.134025 c -1.090782,0 -2.365794,0 -3.287578,0.07753 v 6.149602 C 19.049632,40.98465 20.4937,40.777758 21.953058,40.70022 v 3.978857 l -6.805603,0.904532 V 21.166667 h 6.805603 v 4.134121 H 17.605509 Z M 31.093698,25.300883 H 28.54356 V 44.31778 c -0.829581,0 -1.659163,0 -2.45788,0.05152 V 25.300883 h -2.55014 v -4.134216 h 7.558273 z m 3.994206,5.270976 h 3.364432 v 4.134027 h -3.364432 v 9.379378 H 32.67584 V 21.166667 h 6.867219 v 4.134121 h -4.455155 z m 8.449363,9.895944 c 1.398022,0.05152 2.811279,0.232706 4.178607,0.361679 v 4.082493 C 45.519078,44.679269 43.322225,44.44704 41.079327,44.369312 V 21.166667 h 2.45794 z m 6.252507,4.728409 c 0.783482,0.07763 1.613065,0.15517 2.411895,0.309957 V 21.166667 H 49.789774 Z M 62.970834,21.166667 59.8522,33.749916 62.970834,47.625 c -0.921839,-0.2067 -1.843566,-0.49094 -2.76535,-0.749363 l -1.7666,-7.647947 -1.797239,7.028034 c -0.891202,-0.258615 -1.751479,-0.336152 -2.64234,-0.542854 l 3.164623,-12.118123 -2.857495,-12.42808 h 2.642228 l 1.613064,6.950497 1.720669,-6.950497 z"
       fill="#d81f26"
       id="path1-0"
       style="fill:#ffffff;stroke-width:0.07372" /></g></svg>
