<?xml version="1.0" encoding="UTF-8" standalone="no"?>
<!-- Created with Inkscape (http://www.inkscape.org/) -->

<svg
   width="256"
   height="256"
   viewBox="0 0 67.733332 67.733333"
   version="1.1"
   id="svg1"
   inkscape:version="1.3.2 (091e20e, 2023-11-25)"
   sodipodi:docname="tmdb.svg"
   xml:space="preserve"
   xmlns:inkscape="http://www.inkscape.org/namespaces/inkscape"
   xmlns:sodipodi="http://sodipodi.sourceforge.net/DTD/sodipodi-0.dtd"
   xmlns="http://www.w3.org/2000/svg"
   xmlns:svg="http://www.w3.org/2000/svg"><sodipodi:namedview
     id="namedview1"
     pagecolor="#505050"
     bordercolor="#eeeeee"
     borderopacity="1"
     inkscape:showpageshadow="0"
     inkscape:pageopacity="0"
     inkscape:pagecheckerboard="0"
     inkscape:deskcolor="#505050"
     inkscape:document-units="mm"
     inkscape:zoom="1.3115105"
     inkscape:cx="87.685154"
     inkscape:cy="86.160195"
     inkscape:window-width="1392"
     inkscape:window-height="847"
     inkscape:window-x="1758"
     inkscape:window-y="271"
     inkscape:window-maximized="0"
     inkscape:current-layer="layer1" /><defs
     id="defs1"><style
       id="style1">.cls-1{fill:url(#linear-gradient);}</style><linearGradient
       id="linear-gradient"
       y1="66.7"
       x2="185.04"
       y2="66.7"
       gradientUnits="userSpaceOnUse"
       gradientTransform="matrix(0.28588821,0,0,0.27767297,7.4083333,15.875)"><stop
         offset="0"
         stop-color="#90cea1"
         id="stop1" /><stop
         offset="0.56"
         stop-color="#3cbec9"
         id="stop2" /><stop
         offset="1"
         stop-color="#00b3e5"
         id="stop3" /></linearGradient></defs><g
     inkscape:label="Layer 1"
     inkscape:groupmode="layer"
     id="layer1"><path
       class="cls-1"
       d="m 22.005784,34.395787 v 0 a 5.0516446,4.9064815 0 0 1 5.051644,-4.914812 h -0.02859 a 5.0516446,4.9064815 0 0 1 5.051645,4.914812 v 0 a 5.0516446,4.9064815 0 0 1 -5.051645,4.906483 h 0.02859 a 5.0516446,4.9064815 0 0 1 -5.051644,-4.906483 z m 23.634377,-8.699495 h 9.405723 a 5.0516446,4.9064815 0 0 0 5.051644,-4.90648 v 0 A 5.0516446,4.9064815 0 0 0 55.045884,15.875 h -9.405723 a 5.0516446,4.9064815 0 0 0 -5.051644,4.914812 v 0 a 5.0516446,4.9064815 0 0 0 5.051644,4.90648 z M 13.334795,52.908245 h 18.268256 a 5.0516446,4.9064815 0 0 0 5.051644,-4.906482 v 0 A 5.0516446,4.9064815 0 0 0 31.60305,43.086952 H 13.334795 a 5.0516446,4.9064815 0 0 0 -5.0516437,4.914811 v 0 a 5.0516446,4.9064815 0 0 0 5.0516437,4.906482 z M 37.326533,39.30227 h 1.786801 l 4.173967,-9.821295 H 40.900135 L 38.35573,35.92299 h -0.02859 l -2.501522,-6.442015 h -2.544404 z m 9.277072,0 h 2.229928 v -9.821295 h -2.229928 z m 6.346718,0 h 7.132911 v -1.990917 h -4.902983 v -1.999245 h 4.388384 v -1.999245 h -4.388384 v -1.832642 h 4.645683 V 29.480975 H 52.964617 Z M 10.295803,25.704623 h 2.229928 v -7.91368 h 2.887471 V 15.875 H 7.4083333 v 1.915943 h 2.8874697 z m 8.26217,0 H 20.7879 v -4.248396 h 4.316911 v 4.248396 h 2.229928 V 15.875 h -2.229928 v 3.665283 H 20.773606 V 15.875 h -2.215633 z m 11.792887,0 h 7.147206 v -1.999245 h -4.931572 v -1.999245 h 4.388383 v -1.999246 h -4.388383 v -1.832642 h 4.645683 V 15.875 H 30.35086 Z M 7.7656933,39.310598 h 2.215634 v -7.538819 h 0.02859 l 2.572994,7.538819 h 1.686741 l 2.65876,-7.538819 h 0.02859 v 7.538819 H 19.18693 V 29.480975 H 15.827744 L 13.48346,35.895221 H 13.45487 L 11.124881,29.480975 H 7.7514013 Z M 39.810901,52.916576 h 3.619345 a 7.029991,6.8279786 0 0 0 2.161315,-0.319325 5.5805378,5.4201766 0 0 0 1.81539,-0.935758 4.67999,4.5455067 0 0 0 1.249331,-1.527201 4.8343696,4.6954501 0 0 0 0.491728,-2.104761 5.2889318,5.1369501 0 0 0 -0.480292,-2.290803 4.3169119,4.1928619 0 0 0 -1.292215,-1.53553 5.3032262,5.1508337 0 0 0 -1.924028,-0.838573 9.5886904,9.3131516 0 0 0 -2.307117,-0.277673 h -3.347751 z m 2.232787,-7.830378 h 1.315086 a 4.9830314,4.83984 0 0 1 1.335097,0.172156 3.3391742,3.2432203 0 0 1 1.109247,0.522025 2.5729938,2.4990568 0 0 1 0.749027,0.883001 2.8217166,2.7406323 0 0 1 0.285888,1.255082 3.4077874,3.3098619 0 0 1 -0.285888,1.410579 2.4843685,2.4129782 0 0 1 -0.763322,0.927427 3.1076048,3.0183052 0 0 1 -1.143552,0.508142 6.1666086,5.9894061 0 0 1 -1.429442,0.15272 h -1.186435 z m 10.331999,7.830378 h 4.14538 a 6.6068764,6.4170225 0 0 0 1.352251,-0.138837 3.8251842,3.7152644 0 0 0 1.220743,-0.458161 2.6930669,2.6156795 0 0 0 0.886253,-0.833019 2.4357675,2.3657737 0 0 0 0.343066,-1.29951 2.6187359,2.5434845 0 0 0 -0.157239,-0.888552 2.2270692,2.1630726 0 0 0 -0.448845,-0.727505 2.3957431,2.3268995 0 0 0 -0.700426,-0.513694 2.858882,2.7767297 0 0 0 -0.909124,-0.277673 v -0.02777 a 2.6530425,2.5768052 0 0 0 1.266484,-0.783037 2.1212904,2.0603335 0 0 0 0.477435,-1.388366 2.3843076,2.3157926 0 0 0 -0.328772,-1.29118 2.2527991,2.1880631 0 0 0 -0.857665,-0.758046 3.6879579,3.5819814 0 0 0 -1.192154,-0.360975 9.840272,9.5575038 0 0 0 -1.323662,-0.08886 h -3.773725 z m 2.229928,-7.996983 h 1.515208 a 3.0847338,2.9960915 0 0 1 0.528893,0.04721 1.6495749,1.6021731 0 0 1 0.48601,0.16105 0.95200772,0.92465102 0 0 1 0.351642,0.313771 0.92056002,0.89410698 0 0 1 0.134369,0.505365 1.0377742,1.0079529 0 0 1 -0.120073,0.499811 0.9548666,0.92742774 0 0 1 -0.323055,0.333207 1.3665456,1.3272768 0 0 1 -0.448844,0.180488 2.3328478,2.2658115 0 0 1 -0.508881,0.05554 h -1.640998 z m 0,3.929074 h 1.686741 a 4.3226297,4.1984154 0 0 1 0.586071,0.04165 2.2385046,2.1741794 0 0 1 0.571777,0.15272 1.1435528,1.1106919 0 0 1 0.451702,0.324878 0.89483008,0.86911642 0 0 1 0.177251,0.555345 1.0606452,1.0301667 0 0 1 -0.134367,0.541463 1.1435528,1.1106919 0 0 1 -0.351643,0.360974 1.3665456,1.3272768 0 0 1 -0.477433,0.194372 2.5472639,2.4740662 0 0 1 -0.523175,0.05554 h -2.001218 z"
       id="path3"
       style="fill:#ffffff;stroke-width:0.28175" /></g></svg>
